DataType=double
version=3
OpenSimVersion=4.4-2022-10-11-798caa840
endheader
time	ground_force_r_vx	ground_force_r_vy	ground_force_r_vz	ground_force_r_px	ground_force_r_py	ground_force_r_pz	ground_force_l_vx	ground_force_l_vy	ground_force_l_vz	ground_force_l_px	ground_force_l_py	ground_force_l_pz	ground_torque_r_x	ground_torque_r_y	ground_torque_r_z	ground_torque_l_x	ground_torque_l_y	ground_torque_l_z
2.245	-0.1374415090135973	0.04897137775200596	0.002840611770750135	2.141054274732053	0	-0.4239019388799552	-41.86808112466454	616.7578890363473	45.88006016471447	2.27792576820999	0	-0.5842266399349441	0	1.420180813227478e-11	0	0	-1.063204614949299	0
2.25	-0.2084576844163593	0.07370021370667774	0.003404735567328526	2.159487406914679	0	-0.4242029166585157	-40.12056565129828	612.4363336711972	45.25696316647929	2.279214632979954	0	-0.5842263413111601	0	3.18880278085687e-11	0	0	-1.12097700607579	0
2.255	-0.3126858135450861	0.1097558312038201	0.003735562285786784	2.178080387621093	0	-0.4244305126069348	-38.44437164304566	608.9485684196475	45.00151452644782	2.280526866646282	0	-0.5842260888964861	0	7.178584289502243e-11	0	0	-1.165804903515365	0
2.26	-0.4611065666911703	0.1607807148382378	0.00346608409265881	2.196840219832535	0	-0.4245826091286781	-36.84795667288783	606.255729254656	45.06130132187514	2.281857097162282	0	-0.5842172234307675	0	1.610108981905944e-10	0	0	-1.179596759749586	0
2.265	-0.6648779243832762	0.2304275519664946	0.002037050287682646	2.215772154763693	0	-0.4246570191433608	-35.26900645216391	604.4416499399092	45.36371477700359	2.28320599378856	0	-0.5841881262747382	0	3.578389815364624e-10	0	0	-1.163911341621215	0
2.27	-0.9331280591694081	0.3216064327077215	-0.001324109677055627	2.234880809593025	0	-0.4246512912751474	-33.68993759990648	603.5702020969661	45.7992035201061	2.284570112589835	0	-0.5841319309215977	0	7.842445252231878e-10	0	0	-1.142356294078496	0
2.275	-1.269753653786684	0.4354224847895901	-0.007551769436714866	2.254170078760913	0	-0.4245622713293774	-32.11505642705878	603.5357972109124	46.20706789836031	2.285939898415908	0	-0.5840470038304171	0	1.687688398754883e-09	0	0	-1.116023738176878	0
2.28	-1.672800897718728	0.5710044729375858	-0.0176486880917613	2.273641033644842	0	-0.424386187463497	-30.54329574136765	604.203855673671	46.52944232880815	2.28731170841879	0	-0.5839315297454964	0	3.556725247655379e-09	0	0	-1.076404947940674	0
2.285	-2.132266549638614	0.7247538604276091	-0.03252883687469753	2.293294140173032	0	-0.4241187571085497	-29.00704280442165	605.4977032522791	46.77444867333092	2.288681735781711	0	-0.5837854438744761	0	7.329391246702066e-09	0	0	-1.029628074587933	0
2.29	-2.636661907222023	0.8926102220244869	-0.05294465431587995	2.313126335727492	0	-0.4237553962623099	-27.53286684623483	607.3801720010771	46.96403571035545	2.290041863126831	0	-0.5836141451423288	0	1.478563636803099e-08	0	0	-0.9914921549141695	0
2.295	-3.172754317236661	1.069927099346458	-0.07946089198905899	2.333133462423734	0	-0.4232911661795982	-26.08953530142534	609.7470266657897	47.05905474077807	2.2913846713809	0	-0.5834226951282383	0	2.925833852973625e-08	0	0	-0.9667260921069385	0
2.3	-3.725388574044433	1.251617391344812	-0.1123036869346203	2.353306893080041	0	-0.4227214978749621	-24.66765490693774	612.4792811758359	47.03646984504428	2.292709216252063	0	-0.5832114438138235	0	5.686672466254095e-08	0	0	-0.945624100623931	0
2.305	-4.277247060122821	1.432014314974077	-0.1512395260379691	2.373637553160465	0	-0.4220423992653963	-23.25520372497182	615.5280737016465	46.84679330448807	2.294017933000782	0	-0.5829808492110505	0	1.085941581102645e-07	0	0	-0.9192864389769539	0
2.31	-4.812884260760734	1.606104484426007	-0.195693913632412	2.394115467153759	0	-0.4212506596993371	-21.85210833185397	618.8920869635206	46.5091219321229	2.295309136415202	0	-0.5827360369491892	0	2.037749704530967e-07	0	0	-0.8823675460883038	0
2.315	-5.315359147359882	1.768405682924042	-0.244721573606468	2.414732533488874	0	-0.4203430659956724	-20.38089822975191	622.6038424406609	46.10982433344384	2.296584015689596	0	-0.5824787165056119	0	3.754907916819761e-07	0	0	-0.8350050050659377	0
2.32	-5.76712387236084	1.913352950924834	-0.2968338422778859	2.435480697225724	0	-0.419317200624598	-18.788875591431	626.6822355320063	45.6805107001847	2.297843866029973	0	-0.5822093978827649	0	6.781473919081904e-07	0	0	-0.7786724590008447	0
2.325	-6.136059513223032	2.030516622632185	-0.3490534650741048	2.45635601371046	0	-0.4181714440905693	-17.01955740213925	631.1506041743404	45.22853485669629	2.299092458050378	0	-0.5819268901523295	0	1.196087492494335e-06	0	0	-0.7159401069039433	0
2.33	-6.368254144227278	2.10250861687066	-0.3962753400343613	2.477360794372022	0	-0.4169046409321213	-15.02791548814342	635.9875826012852	44.72328193563297	2.300337688870822	0	-0.581626529265257	0	2.046479786077526e-06	0	0	-0.6470530584883107	0
2.335	-6.411262561188893	2.112739203922826	-0.4323545886276291	2.498497767048579	0	-0.4155156557705495	-12.89421554771917	641.2052068505626	44.14199069503054	2.301582884239379	0	-0.5813073915798491	0	3.369124497165643e-06	0	0	-0.5712801147020343	0
2.34	-6.182903222399058	2.034487107220574	-0.4480120170975569	2.519779313428832	0	-0.4140022450488867	-10.68049347506217	646.8564982096365	43.52061874616108	2.302825698142621	0	-0.5809719188156125	0	5.27123381988126e-06	0	0	-0.4893423755442967	0
2.345	-5.599498354597451	1.840369544612105	-0.4324938659992318	2.5412301063001	0	-0.4123592048882158	-8.370496341859461	652.9285113598686	42.85850369416101	2.304063002023266	0	-0.5806224184576675	0	7.7205634230193e-06	0	0	-0.3995888918285289	0
2.35	-4.634305415710993	1.521827865748091	-0.3786660076844883	2.562891198144957	0	-0.4105752913522925	-5.946626962829166	659.421519886198	42.16084260649304	2.30529041954887	0	-0.5802618513858347	0	1.037997597552742e-05	0	0	-0.3008301171947068	0
2.355	-3.372008843025002	1.106691427014724	-0.2893092027670909	2.584803052834293	0	-0.4086281238157615	-3.375432553658784	666.3285716010924	41.39389386615476	2.30650456947917	0	-0.5798949694511226	0	1.252565020881669e-05	0	0	-0.1920995062071853	0
2.36	-2.023555556738937	0.6640084765326282	-0.1810487590585503	2.606999163798123	0	-0.406460373764916	-0.6120870610529572	673.5878278028822	40.55895672510822	2.307707063433436	0	-0.5795250160867077	0	1.315251803590822e-05	0	0	-0.07031485097630252	0
